<svg version="1.2" xmlns="http://www.w3.org/2000/svg" viewBox="0 0 675 166" width="100%" height="100%">
	<style>
		tspan { white-space:pre }
		.s0 { fill: #ffffff }
		.s1 { fill: #468735;stroke: #000000;stroke-linejoin: round;stroke-width: 18.9 }
		.s2 { fill: #70c454;stroke: #000000;stroke-linejoin: round;stroke-width: .4 }
	</style>
	<g>
		<path id="Obsidian" fill-rule="evenodd" class="s0" d="m146.64 134.82q-10.93 0-20.32-3.92-9.24-3.92-16.25-10.93-6.86-7-10.79-16.11-3.78-9.25-3.78-19.75 0-10.51 3.78-19.76 3.93-9.24 10.79-16.25 7.01-7 16.25-10.93 9.39-4.06 20.32-4.06 10.92 0 20.17 4.06 9.25 3.93 16.11 10.93 6.87 7.01 10.65 16.25 3.92 9.25 3.92 19.76 0 10.5-3.92 19.75-3.78 9.11-10.65 16.11-6.86 7.01-16.11 10.93-9.25 3.92-20.17 3.92zm0-18.21q9.52 0 16.25-4.34 6.86-4.49 10.51-11.91 3.78-7.43 3.78-16.25 0-8.97-3.78-16.39-3.65-7.43-10.51-11.91-6.73-4.49-16.25-4.49-9.53 0-16.53 4.49-6.87 4.48-10.65 11.91-3.64 7.42-3.64 16.39 0 8.82 3.64 16.25 3.78 7.42 10.65 11.91 7 4.34 16.53 4.34zm101.85 18.21q-9.8 0-15.27-3.78-5.32-3.78-8.26-9.95v11.91h-18.36v-102.27h18.92v40.63q2.94-5.75 8.26-9.25 5.33-3.5 14.71-3.5 7.57 0 14.01 3.08 6.59 2.94 11.49 8.27 4.9 5.18 7.71 12.19 2.8 6.86 2.8 14.71 0 10.5-4.91 19.19-4.76 8.54-12.89 13.73-8.12 5.04-18.21 5.04zm-3.08-17.09q6.02 0 10.51-2.94 4.62-2.94 7.14-7.71 2.52-4.9 2.52-10.36 0-5.75-2.52-10.51-2.52-4.77-7.14-7.57-4.49-2.94-10.51-2.94-6.16 0-10.79 2.94-4.62 2.94-7.14 7.71-2.52 4.76-2.52 10.51 0 5.6 2.52 10.36 2.52 4.77 7.14 7.71 4.63 2.8 10.79 2.8zm71.13 17.09q-18.35 0-30.26-12.75l12.75-11.63q7.98 8.97 17.09 8.97 4.9 0 7.43-2.1 2.66-2.24 2.66-5.46 0-1.97-0.98-3.37-0.84-1.4-3.79-2.66-2.8-1.26-8.54-2.52-9.81-2.38-14.57-5.88-4.76-3.51-6.31-7.85-1.54-4.34-1.54-8.97 0-9.52 7.15-15.83 7.28-6.44 20.03-6.44 8.83 0 15.13 2.66 6.31 2.66 11.91 9.95l-13.73 10.5q-2.66-4.2-6.02-6.02-3.23-1.82-6.87-1.82-3.92 0-6.58 1.54-2.52 1.54-2.52 4.9 0 1.83 1.68 3.65 1.68 1.68 8.12 3.36 10.65 2.66 16.25 6.3 5.61 3.51 7.71 7.99 2.1 4.48 2.1 9.95 0 6.72-3.78 12.04-3.64 5.33-10.09 8.41-6.3 3.08-14.43 3.08zm44.45-80.69q-4.76 0-8.13-3.23-3.22-3.36-3.22-7.98 0-4.48 3.22-7.71 3.37-3.36 8.13-3.36 4.9 0 8.13 3.36 3.22 3.23 3.22 7.71 0 4.76-3.22 7.98-3.23 3.23-8.13 3.23zm9.53 78.87h-18.92v-72.85h18.92zm44.29 1.82q-9.95 0-18.22-5.04-8.12-5.19-13.02-13.73-4.77-8.69-4.77-19.19 0-7.85 2.8-14.71 2.81-7.01 7.71-12.19 4.9-5.33 11.35-8.27 6.58-3.08 14.15-3.08 9.38 0 14.71 3.5 5.32 3.5 8.26 9.25v-40.63h18.92v102.27h-18.36v-11.91q-2.94 6.17-8.4 9.95-5.33 3.78-15.13 3.78zm3.08-17.09q6.3 0 10.79-2.8 4.62-2.94 7.14-7.71 2.52-4.76 2.52-10.36 0-5.75-2.52-10.51-2.52-4.76-7.14-7.71-4.49-2.94-10.79-2.94-6.03 0-10.65 2.94-4.48 2.81-7 7.57-2.53 4.76-2.53 10.51 0 5.46 2.53 10.36 2.52 4.77 7 7.71 4.62 2.94 10.65 2.94zm60.1-63.6q-4.76 0-8.13-3.23-3.22-3.36-3.22-7.98 0-4.48 3.22-7.71 3.37-3.36 8.13-3.36 4.9 0 8.13 3.36 3.22 3.23 3.22 7.71 0 4.76-3.22 7.98-3.23 3.23-8.13 3.23zm9.53 78.87h-18.92v-72.85h18.92zm44.29 1.82q-9.95 0-18.22-5.04-8.12-5.19-13.02-13.73-4.77-8.69-4.77-19.19 0-7.85 2.8-14.71 2.81-7.01 7.71-12.19 4.9-5.33 11.35-8.27 6.58-3.08 14.15-3.08 9.52 0 14.85 3.64 5.32 3.5 8.26 9.39v-11.49h18.78v72.85h-18.36v-11.91q-2.94 6.17-8.4 9.95-5.33 3.78-15.13 3.78zm3.08-17.09q6.3 0 10.79-2.8 4.62-2.94 7.14-7.71 2.52-4.76 2.52-10.36 0-5.75-2.52-10.51-2.52-4.76-7.14-7.71-4.49-2.94-10.79-2.94-6.03 0-10.65 2.94-4.48 2.81-7 7.57-2.53 4.76-2.53 10.51 0 5.46 2.53 10.36 2.52 4.77 7 7.71 4.62 2.94 10.65 2.94zm68.63 15.27h-18.92v-72.85h18.64v10.65q5.74-12.33 22.27-12.33 7.85 0 14.15 3.64 6.31 3.64 9.95 10.37 3.64 6.72 3.64 15.97v44.55h-18.91v-39.93q0-9.52-4.35-13.73-4.34-4.34-11.34-4.34-6.03 0-10.65 4.34-4.48 4.21-4.48 13.73z"/>
		<g id="svg_14">
			<g id="svg_11">
				<path id="svg_12" class="s1" d="m170.02 38.72c-0.83 0.53-2.17 2.11-2.96 3.52-0.81 1.4-1.92 5.75-2.49 9.64-0.57 3.91-1.5 10.92-2.09 15.6-0.57 4.68-2.08 12.97-3.33 18.43-1.26 5.46-3.2 12.26-4.31 15.12-1.12 2.87-3.03 6.58-4.25 8.27-1.23 1.7-3.05 3.08-4.1 3.08-1.04 0-2.67-1.18-3.64-2.6-0.95-1.43-2.04-3.66-2.4-4.97-0.37-1.29-1.35-4.69-2.18-7.56-1.23-4.18-1.5-9.45-1.4-26.94l0.12-21.74c-4.74-2.71-7.35-3.33-8.93-3.15-2.54 0.28-2.91 0.75-3.6 4.57-0.42 2.34-1.1 5.53-1.52 7.09-0.68 2.56-0.83 2.26-1.59-3.08-0.47-3.26-1.2-5.92-1.62-5.91-0.43 0-1.28 0.54-1.89 1.19-0.62 0.65-1.65 2.68-2.29 4.49-0.68 1.93-1.17 8.13-1.18 14.89 0 6.37 0.47 14.66 1.06 18.43 0.59 3.77 2.08 11.21 3.31 16.54 1.23 5.33 3.09 11.39 4.13 13.47 1.04 2.08 3.27 5.31 4.96 7.19 1.69 1.88 4.35 4.19 5.9 5.14 1.56 0.95 5.49 2.18 8.75 2.73 4.74 0.81 6.83 0.74 10.63-0.41 2.91-0.87 6.4-2.96 9.11-5.43 3.02-2.77 5.66-6.66 8.52-12.53 2.28-4.68 4.14-9.03 4.12-9.69-0.01-0.65 0.41-1.18 0.93-1.18 0.52 0 1.39 1.18 1.94 2.6 0.55 1.43 2.22 5.15 3.7 8.27 1.49 3.12 4.23 7.05 6.09 8.75 3.03 2.75 3.92 3.04 8.35 2.83 4.79-0.23 4.95-0.32 4.72-2.83-0.13-1.43 0.19-2.6 0.71-2.6 0.52 0 0.95 0.42 0.95 0.94 0 0.52 0.64 0.95 1.42 0.95 0.78 0 1.84-0.85 2.36-1.89 0.52-1.04 0.93-2.64 0.92-3.55-0.01-0.91-2.05-5.26-4.53-9.69-2.49-4.42-5.85-12.28-7.48-17.48-1.62-5.2-3.41-12.21-3.96-15.6-0.54-3.38-1.67-11.25-2.48-17.48-1.15-8.72-2.02-12.17-3.79-14.89-2.23-3.42-2.49-3.55-7.74-3.52-2.99 0.02-6.12 0.47-6.95 0.99z"/>
				<path id="svg_13" class="s1" d="m84.11 10.47c-1.09 1.16-1.97 3.36-1.98 4.96-0.02 1.59-0.38 3.75-0.81 4.79-0.69 1.7-0.83 1.6-1.45-0.95-0.38-1.56-0.47-3.47-0.21-4.25 0.27-0.79 0.21-1.99-0.13-2.69-0.35-0.73-1.4-1.04-2.5-0.74-1.04 0.28-2.42 1.6-3.07 2.92-0.72 1.46-1.17 6.18-1.14 12.09 0.02 5.33 0.43 13.94 0.93 19.14 0.5 5.2 1.53 16.68 2.31 25.52 0.77 8.84 1.82 19.9 2.35 24.57 0.53 4.68 1.18 9.89 1.45 11.58 0.27 1.74 0.07 3.07-0.46 3.07-0.52 0-1.96-1.17-3.2-2.59-1.24-1.43-5.59-7.29-9.68-13.02-4.1-5.73-9.83-14.02-12.75-18.43-2.92-4.41-6.86-10.46-8.74-13.45-1.89-2.99-5.02-7.88-6.96-10.87-1.94-2.99-5.66-8.4-8.27-12.01-2.61-3.61-5.74-7.65-6.96-8.98-1.94-2.1-3.06-2.42-8.98-2.59-4.19-0.11-7.84 0.34-9.59 1.16-1.96 0.91-3.07 2.29-3.56 4.43-0.39 1.7-0.71 6.18-0.71 9.95 0 3.78 0.65 16.11 1.42 27.42 0.78 11.3 1.85 27.14 2.39 35.2 0.54 8.07 1.4 19.76 1.91 26 0.52 6.24 1.41 14.32 1.98 17.96 0.56 3.63 1.62 7.99 2.34 9.68 0.73 1.7 2.27 3.73 3.44 4.52 1.26 0.85 3.19 1.24 4.73 0.95 2.5-0.48 2.59-0.71 2.57-6.41-0.01-3.25 0.17-5.7 0.41-5.44 0.25 0.27 0.65 2.18 0.92 4.26 0.26 2.08 0.82 4.06 1.24 4.41 0.42 0.35 1.99 0.35 3.49 0 1.71-0.4 3.07-1.52 3.63-2.99 0.48-1.3 0.69-5.55 0.46-9.46-0.24-3.89-1.13-12.82-1.97-19.85-0.84-7.02-1.97-17.01-2.51-22.21-0.55-5.2-1.38-12.85-1.87-17.01-0.48-4.16-1.1-10.44-1.37-13.94-0.39-4.88-0.24-6.28 0.67-5.93 0.65 0.26 2.23 2.28 3.5 4.49 1.29 2.22 6.43 10.21 11.44 17.74 5.01 7.53 13.57 19.66 19.03 26.94 5.45 7.28 12.86 16.29 16.44 20.02 3.59 3.72 8.12 7.45 10.07 8.27 1.94 0.81 4.71 1.47 6.14 1.46 1.43-0.01 4.42-0.97 6.64-2.12 3.02-1.57 4.31-2.95 5.07-5.42 0.74-2.4 0.71-7.2-0.11-17.48-0.64-7.8-1.53-20.56-1.99-28.36-0.46-7.8-1.22-29.7-1.67-48.68l-0.82-34.5c-4.97-4.04-7.56-5.22-8.97-5.21-1.41 0-3.45 0.94-4.54 2.08z"/>
			</g>
			<g id="svg_6">
				<path id="svg_7" class="s2" d="m170.02 38.72c-0.83 0.53-2.17 2.11-2.96 3.52-0.81 1.4-1.92 5.75-2.49 9.64-0.57 3.91-1.5 10.92-2.09 15.6-0.57 4.68-2.08 12.97-3.33 18.43-1.26 5.46-3.2 12.26-4.31 15.12-1.12 2.87-3.03 6.58-4.25 8.27-1.23 1.7-3.05 3.08-4.1 3.08-1.04 0-2.67-1.18-3.64-2.6-0.95-1.43-2.04-3.66-2.4-4.97-0.37-1.29-1.35-4.69-2.18-7.56-1.23-4.18-1.5-9.45-1.4-26.94l0.12-21.74c-4.74-2.71-7.35-3.33-8.93-3.15-2.54 0.28-2.91 0.75-3.6 4.57-0.42 2.34-1.1 5.53-1.52 7.09-0.68 2.56-0.83 2.26-1.59-3.08-0.47-3.26-1.2-5.92-1.62-5.91-0.43 0-1.28 0.54-1.89 1.19-0.62 0.65-1.65 2.68-2.29 4.49-0.68 1.93-1.17 8.13-1.18 14.89 0 6.37 0.47 14.66 1.06 18.43 0.59 3.77 2.08 11.21 3.31 16.54 1.23 5.33 3.09 11.39 4.13 13.47 1.04 2.08 3.27 5.31 4.96 7.19 1.69 1.88 4.35 4.19 5.9 5.14 1.56 0.95 5.49 2.18 8.75 2.73 4.74 0.81 6.83 0.74 10.63-0.41 2.91-0.87 6.4-2.96 9.11-5.43 3.02-2.77 5.66-6.66 8.52-12.53 2.28-4.68 4.14-9.03 4.12-9.69-0.01-0.65 0.41-1.18 0.93-1.18 0.52 0 1.39 1.18 1.94 2.6 0.55 1.43 2.22 5.15 3.7 8.27 1.49 3.12 4.23 7.05 6.09 8.75 3.03 2.75 3.92 3.04 8.35 2.83 4.79-0.23 4.95-0.32 4.72-2.83-0.13-1.43 0.19-2.6 0.71-2.6 0.52 0 0.95 0.42 0.95 0.94 0 0.52 0.64 0.95 1.42 0.95 0.78 0 1.84-0.85 2.36-1.89 0.52-1.04 0.93-2.64 0.92-3.55-0.01-0.91-2.05-5.26-4.53-9.69-2.49-4.42-5.85-12.28-7.48-17.48-1.62-5.2-3.41-12.21-3.96-15.6-0.54-3.38-1.67-11.25-2.48-17.48-1.15-8.72-2.02-12.17-3.79-14.89-2.23-3.42-2.49-3.55-7.74-3.52-2.99 0.02-6.12 0.47-6.95 0.99z"/>
				<path id="svg_8" class="s2" d="m84.11 10.47c-1.09 1.16-1.97 3.36-1.98 4.96-0.02 1.59-0.38 3.75-0.81 4.79-0.69 1.7-0.83 1.6-1.45-0.95-0.38-1.56-0.47-3.47-0.21-4.25 0.27-0.79 0.21-1.99-0.13-2.69-0.35-0.73-1.4-1.04-2.5-0.74-1.04 0.28-2.42 1.6-3.07 2.92-0.72 1.46-1.17 6.18-1.14 12.09 0.02 5.33 0.43 13.94 0.93 19.14 0.5 5.2 1.53 16.68 2.31 25.52 0.77 8.84 1.82 19.9 2.35 24.57 0.53 4.68 1.18 9.89 1.45 11.58 0.27 1.74 0.07 3.07-0.46 3.07-0.52 0-1.96-1.17-3.2-2.59-1.24-1.43-5.59-7.29-9.68-13.02-4.1-5.73-9.83-14.02-12.75-18.43-2.92-4.41-6.86-10.46-8.74-13.45-1.89-2.99-5.02-7.88-6.96-10.87-1.94-2.99-5.66-8.4-8.27-12.01-2.61-3.61-5.74-7.65-6.96-8.98-1.94-2.1-3.06-2.42-8.98-2.59-4.19-0.11-7.84 0.34-9.59 1.16-1.96 0.91-3.07 2.29-3.56 4.43-0.39 1.7-0.71 6.18-0.71 9.95 0 3.78 0.65 16.11 1.42 27.42 0.78 11.3 1.85 27.14 2.39 35.2 0.54 8.07 1.4 19.76 1.91 26 0.52 6.24 1.41 14.32 1.98 17.96 0.56 3.63 1.62 7.99 2.34 9.68 0.73 1.7 2.27 3.73 3.44 4.52 1.26 0.85 3.19 1.24 4.73 0.95 2.5-0.48 2.59-0.71 2.57-6.41-0.01-3.25 0.17-5.7 0.41-5.44 0.25 0.27 0.65 2.18 0.92 4.26 0.26 2.08 0.82 4.06 1.24 4.41 0.42 0.35 1.99 0.35 3.49 0 1.71-0.4 3.07-1.52 3.63-2.99 0.48-1.3 0.69-5.55 0.46-9.46-0.24-3.89-1.13-12.82-1.97-19.85-0.84-7.02-1.97-17.01-2.51-22.21-0.55-5.2-1.38-12.85-1.87-17.01-0.48-4.16-1.1-10.44-1.37-13.94-0.39-4.88-0.24-6.28 0.67-5.93 0.65 0.26 2.23 2.28 3.5 4.49 1.29 2.22 6.43 10.21 11.44 17.74 5.01 7.53 13.57 19.66 19.03 26.94 5.45 7.28 12.86 16.29 16.44 20.02 3.59 3.72 8.12 7.45 10.07 8.27 1.94 0.81 4.71 1.47 6.14 1.46 1.43-0.01 4.42-0.97 6.64-2.12 3.02-1.57 4.31-2.95 5.07-5.42 0.74-2.4 0.71-7.2-0.11-17.48-0.64-7.8-1.53-20.56-1.99-28.36-0.46-7.8-1.22-29.7-1.67-48.68l-0.82-34.5c-4.97-4.04-7.56-5.22-8.97-5.21-1.41 0-3.45 0.94-4.54 2.08z"/>
			</g>
		</g>
	</g>
</svg>
